<?xml version="1.0" encoding="utf-8"?>
<!-- Generator: Adobe Illustrator 17.1.0, SVG Export Plug-In . SVG Version: 6.00 Build 0)  -->
<!DOCTYPE svg PUBLIC "-//W3C//DTD SVG 1.1//EN" "http://www.w3.org/Graphics/SVG/1.1/DTD/svg11.dtd">
<svg version="1.1" xmlns="http://www.w3.org/2000/svg" xmlns:xlink="http://www.w3.org/1999/xlink" x="0px" y="0px"
	 viewBox="0 0 180.3333282 88.6666641" enable-background="new 0 0 180.3333282 88.6666641" xml:space="preserve">
<g id="Guides">
</g>
<g id="Background" display="none">
	<rect x="-99.6666641" y="-76" display="inline" fill="#3E3433" width="374" height="280"/>
</g>
<g id="Glow" display="none">
	<g display="inline">
		<radialGradient id="SVGID_1_" cx="88.8333359" cy="38.1666679" r="75.75" gradientUnits="userSpaceOnUse">
			<stop  offset="0" style="stop-color:#FFFFFF"/>
			<stop  offset="0.0212791" style="stop-color:#FFFFFF;stop-opacity:0.9787209"/>
			<stop  offset="1" style="stop-color:#FFFFFF;stop-opacity:0"/>
		</radialGradient>
		<circle opacity="0.25" fill="url(#SVGID_1_)" cx="88.8333359" cy="38.1666718" r="75.75"/>
	</g>
</g>
<g id="Shapes">
	<g>
		<g display="none">
			<g display="inline">
				<g>
					
						<image overflow="visible" opacity="0.1" width="36" height="57" xlink:href="9E2C8CBD.png"  transform="matrix(1 0 0 1 4.3333335 36)">
					</image>
					<g>
						<polygon fill="#24B52E" points="7.8043418,63.5 22.2252407,88.4777222 36.6460762,63.5 22.2252407,38.5222778 						"/>
					</g>
				</g>
				<g>
					
						<image overflow="visible" opacity="0.08" width="36" height="32" xlink:href="9E2C8CBF.png"  transform="matrix(1 0 0 1 19.333334 35)">
					</image>
					<g>
						<polygon fill="#24B52E" points="22.6955662,37.7457809 37.2954216,62.9186859 51.7777443,38.0051308 						"/>
					</g>
				</g>
				<g>
					
						<image overflow="visible" opacity="0.1" width="51" height="33" xlink:href="9E2C8CBA.png"  transform="matrix(1 0 0 1 34.3333321 35)">
					</image>
					<g>
						<polygon fill="#24B52E" points="52.0442085,38 51.5384712,38.8759155 37.8989449,64 66.0437241,64 66.5951157,64 
							66.7407455,64 81.6065292,38 52.5956001,38 						"/>
					</g>
				</g>
				<g>
					
						<image overflow="visible" opacity="0.08" width="51" height="31" xlink:href="9E2C8CBB.png"  transform="matrix(1 0 0 1 49.3333321 24)">
					</image>
					<g>
						<g>
							<g>
								<polygon fill="#009245" points="66.9426498,26.0434875 52.3958931,51 81.4894028,51 								"/>
							</g>
							<g>
								<polygon fill="#009245" points="67.8043442,26 82.2252426,50.9777222 96.64608,26 								"/>
							</g>
						</g>
					</g>
				</g>
			</g>
		</g>
	</g>
</g>
<g id="Text">
	<g display="none">
		<path display="inline" fill="#FFFFFF" d="M108.4114609,30.496582h3.9941406v6.3574219h-1.2070313l-0.1357422-1.6489258
			c-0.6113281,1.1386719-1.6484375,1.6489258-2.90625,1.6489258c-2.8222656,0-4.2666016-2.0908203-4.2666016-6.1367188
			c0-4.6401367,1.8525391-6.7480469,4.7421875-6.7480469c2.4990234,0,3.7734375,1.6826172,3.7226563,4.5043945l-1.546875,0.1362305
			c0-2.4819336-0.9521484-3.2978516-2.2949219-3.2978516c-1.6826172,0-2.8896484,1.4277344-2.8896484,5.2353516
			c0,3.3486328,0.8837891,4.9804688,2.7539063,4.9804688c1.5126953,0,2.5322266-1.2749023,2.5498047-3.2802734v-0.425293h-2.515625
			V30.496582z"/>
		<path display="inline" fill="#FFFFFF" d="M118.9339218,30.8193359c0.1533203-1.4619141-0.1523438-1.8696289-0.9003906-1.8696289
			c-1.2919922,0-1.7675781,1.3769531-1.7675781,2.9746094v4.7255859h-1.5136719v-8.7373047h1.3945313l0.0673828,1.2749023h0.0341797
			c0.3232422-0.7475586,1.0205078-1.4785156,2.2265625-1.4785156c1.3769531,0,2.1757813,0.9174805,1.8867188,3.0253906
			L118.9339218,30.8193359z"/>
		<path display="inline" fill="#FFFFFF" d="M121.7737656,24.1733398h1.5302734v1.8188477h-1.5302734V24.1733398z
			 M121.7737656,27.9125977h1.5302734v8.7373047h-1.5302734V27.9125977z"/>
		<path display="inline" fill="#FFFFFF" d="M132.1936798,24.1733398v12.4765625h-1.2236328l-0.2041016-1.1386719h-0.0166016
			c-0.4589844,0.8666992-1.3769531,1.3427734-2.4140625,1.3427734c-1.8867111,0-3.212883-1.1728516-3.212883-4.3857422
			c0-3.1616211,1.2412109-4.7592773,3.400383-4.7592773c1.0878906,0,1.7509766,0.4755859,2.1757813,1.121582v-4.6572266H132.1936798
			z M128.7776642,28.8476563c-1.3935471,0-2.0908127,1.1220703-2.0908127,3.6206055
			c0,2.4140625,0.7138672,3.2636719,1.9550705,3.2636719c1.3427734,0,2.1240234-1.0708008,2.1240234-3.4677734
			C130.7659454,29.6464844,129.9505157,28.8476563,128.7776642,28.8476563z"/>
		<path display="inline" fill="#CB9D4F" d="M134.3704376,39.7602539V27.9125977h1.2578125l0.1533203,1.1220703h0.0507813
			c0.4931641-0.7817383,1.2919922-1.3256836,2.5498047-1.3256836c1.6660156,0,3.0595703,1.206543,3.0595703,4.3173828
			c0,3.6376953-1.546875,4.8276367-3.3818359,4.8276367c-1.0205078,0-1.8027344-0.4589844-2.1757813-1.0708008h-0.0175781v3.9770508
			H134.3704376z M137.8216095,35.7148438c1.4443359,0,2.0566406-1.2749023,2.0566406-3.6542969
			c0-2.4140625-0.7646484-3.2128906-1.9033203-3.2128906c-1.3945313,0-2.1591797,1.0029297-2.1591797,3.3657227
			C135.8157501,34.8652344,136.5979767,35.7148438,137.8216095,35.7148438z"/>
		<path display="inline" fill="#FFFFFF" d="M150.1468048,36.6328125c-0.3398438,0.0849609-0.6289063,0.1191406-0.8671875,0.1191406
			c-0.9179688,0-1.2402344-0.4931641-1.359375-1.2070313c-0.4248047,0.7822266-1.3095703,1.309082-2.5332031,1.309082
			c-1.8525391,0-2.6005859-1.1728516-2.6005859-2.3798828c0-2.2607422,2.0742188-2.6176758,4.9804688-2.8217773V31.074707
			c0-1.7338867-0.7304688-2.2099609-1.7167969-2.2099609c-1.3085938,0-1.5810547,0.6118164-1.5810547,1.3935547
			c0,0.2553711,0.0175781,0.5102539,0.0517578,0.7651367l-1.34375,0.1191406
			c-0.0673828-0.2890625-0.0849609-0.578125-0.0849609-0.8500977c0-1.5126953,0.9355469-2.5834961,3.0771484-2.5834961
			c2.7197266,0,3.0761719,1.9038086,3.0761719,4.1303711v3.2128906c0,0.4589844,0.1191406,0.6625977,0.4765625,0.6625977
			c0.1015625,0,0.2382813-0.0170898,0.390625-0.0507813L150.1468048,36.6328125z M147.766922,32.706543
			c-2.8554688,0.1015625-3.4169922,0.6455078-3.4169922,1.6484375c0,0.7988281,0.4765625,1.394043,1.4960938,1.394043
			c1.0371094,0,1.9208984-0.815918,1.9208984-1.9716797V32.706543z"/>
		<path display="inline" fill="#FFFFFF" d="M155.9778595,30.5644531c-0.1015625-1.1049805-0.5273438-1.699707-1.6660156-1.699707
			c-0.9853516,0-1.5810547,0.3911133-1.5810547,1.2236328c0,0.9692383,0.8847656,1.2070313,1.8876953,1.4619141
			c1.2910156,0.3232422,2.7871094,0.6801758,2.7871094,2.6347656c0,1.699707-1.4111328,2.6689453-3.2978516,2.6689453
			c-1.9375,0-2.9570313-0.8330078-3.1445313-2.7197266l1.3769531-0.2041016
			c0.1357422,1.1386719,0.5097656,1.7675781,1.8193359,1.7675781c1.2236328,0,1.7675781-0.5605469,1.7675781-1.359375
			c0-1.0029297-0.8496094-1.2749023-1.8193359-1.5302734c-1.3085938-0.3398438-2.8212891-0.6118164-2.8212891-2.5327148
			c0-1.699707,1.3427734-2.5664063,3.0595703-2.5664063c1.8701172,0,2.8212891,0.9345703,2.9580078,2.6513672
			L155.9778595,30.5644531z"/>
		<path display="inline" fill="#FFFFFF" d="M158.2386017,27.9125977h1.0371094V26.09375l1.5126953-0.5097656v2.3286133h1.9892578
			v1.1728516h-1.9892578v4.8276367c0,1.2070313,0.2548828,1.7509766,1.1894531,1.7509766
			c0.3916016,0,0.7314453-0.0678711,1.0546875-0.1699219l0.1357422,1.121582
			c-0.2890625,0.1191406-0.8671875,0.2382813-1.4960938,0.2382813c-1.8183594,0-2.3964844-1.0200195-2.3964844-2.7709961v-4.9975586
			h-1.0371094V27.9125977z"/>
		<path display="inline" fill="#FFFFFF" d="M170.6487579,33.8452148c-0.2548828,2.4477539-1.8701172,3.0087891-3.2128906,3.0087891
			c-2.7539063,0-3.6376953-1.9208984-3.6376953-4.487793c0-2.8383789,1.2919922-4.6572266,3.7910156-4.6572266
			c2.0732422,0,3.1269531,1.4106445,3.1269531,3.8754883c0,0.3227539-0.0166016,0.6459961-0.0507813,1.0029297h-5.2861328
			c0,1.7338867,0.4589844,3.0766602,2.0908203,3.0766602c1.0703125,0,1.7333984-0.5610352,1.9033203-1.9379883
			L170.6487579,33.8452148z M169.2542267,31.5166016c0.0517578-1.5810547-0.4248047-2.6689453-1.8183594-2.6689453
			c-1.4619141,0-2.0224609,1.2749023-2.0566406,2.6689453H169.2542267z"/>
	</g>
	<g display="none">
		<path display="inline" fill="#B3B3B3" d="M112.382164,51.1142578h-0.7832031l0.1269531-0.7753906l0.6240234-1.3037109
			l0.2958984,0.0878906l-0.4160156,1.03125h0.3037109L112.382164,51.1142578z"/>
		<path display="inline" fill="#B3B3B3" d="M114.0940781,51.6816406L113.6858749,55h-0.5751953l0.4072266-3.3183594H114.0940781z
			 M113.6624374,50.1708984c0.0634766-0.0800781,0.1835938-0.1523438,0.34375-0.1523438
			c0.1113281,0,0.1914063,0.0322266,0.2558594,0.0957031c0.0712891,0.0722656,0.1035156,0.1601563,0.1035156,0.2646484
			c0,0.1435547-0.0556641,0.2470703-0.1279297,0.3193359c-0.1035156,0.1123047-0.2314453,0.1357422-0.3193359,0.1357422
			c-0.1044922,0-0.1923828-0.03125-0.2724609-0.1113281c-0.0634766-0.0644531-0.0957031-0.1523438-0.0957031-0.2480469
			C113.5501328,50.3544922,113.5979843,50.2421875,113.6624374,50.1708984z"/>
		<path display="inline" fill="#B3B3B3" d="M115.1819687,51.6816406h0.5761719l-0.0478516,0.3837891
			c0.015625-0.0234375,0.1591797-0.2001953,0.3359375-0.3115234c0.2070313-0.1279297,0.4316406-0.1523438,0.6152344-0.1523438
			c0.2402344,0,0.5517578,0.0478516,0.7919922,0.2880859c0.2236328,0.2236328,0.2636719,0.4960938,0.2636719,0.7431641
			c0,0.1679688-0.0244141,0.3525391-0.0478516,0.5517578L117.444664,55h-0.5751953l0.2001953-1.6552734
			c0.015625-0.1357422,0.0478516-0.4160156,0.0478516-0.5673828c0-0.1357422-0.0166016-0.34375-0.1679688-0.4960938
			c-0.0966797-0.0957031-0.2558594-0.1679688-0.4638672-0.1679688c-0.2558594,0-0.4638672,0.0966797-0.5917969,0.2324219
			c-0.2236328,0.2314453-0.2880859,0.6230469-0.328125,0.9189453L115.3499374,55h-0.5751953L115.1819687,51.6816406z"/>
		<path display="inline" fill="#B3B3B3" d="M121.6858749,49.1708984L120.9661484,55h-0.5751953l0.7197266-5.8291016H121.6858749z"/>
		<path display="inline" fill="#B3B3B3" d="M123.038414,51.6816406L122.6302109,55h-0.5751953l0.4072266-3.3183594H123.038414z
			 M122.6067734,50.1708984c0.0634766-0.0800781,0.1835938-0.1523438,0.34375-0.1523438
			c0.1113281,0,0.1914063,0.0322266,0.2558594,0.0957031c0.0712891,0.0722656,0.1035156,0.1601563,0.1035156,0.2646484
			c0,0.1435547-0.0556641,0.2470703-0.1279297,0.3193359c-0.1035156,0.1123047-0.2314453,0.1357422-0.3193359,0.1357422
			c-0.1044922,0-0.1923828-0.03125-0.2724609-0.1113281c-0.0634766-0.0644531-0.0957031-0.1523438-0.0957031-0.2480469
			C122.4944687,50.3544922,122.5423203,50.2421875,122.6067734,50.1708984z"/>
		<path display="inline" fill="#B3B3B3" d="M126.8216171,54.1523438c-0.1523438,0.2558594-0.3925781,0.5361328-0.6162109,0.6875
			c-0.328125,0.2158203-0.6796875,0.2558594-0.9589844,0.2558594c-0.3925781,0-0.7675781-0.0712891-1.0957031-0.4160156
			c-0.2001953-0.2070313-0.4394531-0.5751953-0.4394531-1.1904297c0-0.5683594,0.2158203-1.0722656,0.5673828-1.4238281
			c0.34375-0.34375,0.7197266-0.4638672,1.1591797-0.4638672c0.5595703,0,0.8876953,0.2001953,1.0791016,0.3925781
			c0.2402344,0.2470703,0.4638672,0.703125,0.3759766,1.4628906h-2.5820313
			c-0.0087891,0.4716797,0.1513672,0.7353516,0.2958984,0.8789063c0.1914063,0.1923828,0.4150391,0.2480469,0.6552734,0.2480469
			c0.1914063,0,0.4238281-0.03125,0.6396484-0.1835938c0.1679688-0.1201172,0.3359375-0.3359375,0.4316406-0.5117188
			L126.8216171,54.1523438z M126.3411484,52.9775391c-0.0078125-0.2402344-0.1113281-0.4960938-0.2792969-0.65625
			c-0.1845703-0.1757813-0.4238281-0.2080078-0.6083984-0.2080078c-0.2958984,0-0.5273438,0.0800781-0.7275391,0.2802734
			c-0.1435547,0.1435547-0.2636719,0.3515625-0.3193359,0.5839844H126.3411484z"/>
		<path display="inline" fill="#B3B3B3" d="M128.3430939,53.4326172c-0.0166016,0.1523438-0.0322266,0.2724609-0.0322266,0.4316406
			c0,0.2158203,0.0234375,0.4003906,0.2001953,0.5517578c0.1269531,0.1123047,0.3115234,0.1679688,0.4951172,0.1679688
			c0.2324219,0,0.4160156-0.0878906,0.5361328-0.1992188c0.1914063-0.1923828,0.2314453-0.4882813,0.2792969-0.8642578
			l0.2246094-1.8388672h0.5751953l-0.2314453,1.9033203c-0.0566406,0.4394531-0.1123047,0.8632813-0.4082031,1.1669922
			c-0.3037109,0.3037109-0.7119141,0.34375-0.9589844,0.34375c-0.4482422,0-0.7519531-0.1113281-0.9677734-0.3037109
			c-0.2558517-0.2236328-0.3281174-0.5039063-0.3281174-0.8398438c0-0.1591797,0.0322266-0.4228516,0.0478516-0.5673828
			l0.2080078-1.703125h0.5761642L128.3430939,53.4326172z"/>
		<path display="inline" fill="#B3B3B3" d="M133.5833282,54.640625c-0.2324219-0.2480469-0.4238281-0.6240234-0.4238281-1.1601563
			c0-0.4794922,0.1591797-0.9746094,0.5996094-1.3828125c0.3671875-0.3359375,0.7910156-0.4960938,1.3271484-0.4960938
			c0.5439453,0,0.9355469,0.1757813,1.2148438,0.4560547c0.3359375,0.3359375,0.4082031,0.7431641,0.4082031,1.0869141
			c0,0.7197266-0.2958984,1.1835938-0.5595703,1.4394531c-0.4238281,0.4160156-0.9355469,0.5117188-1.3837891,0.5117188
			C134.2942657,55.0957031,133.9026642,54.9755859,133.5833282,54.640625z M134.1741486,52.4814453
			c-0.2792969,0.2714844-0.4238281,0.6396484-0.4238281,1.0390625c0,0.3759766,0.1601563,0.6162109,0.2880859,0.7519531
			c0.1201172,0.1279297,0.3603516,0.3115234,0.7675781,0.3115234c0.4160156,0,0.7119141-0.1757813,0.9033203-0.3837891
			c0.2480469-0.2636719,0.4003906-0.6630859,0.4003906-1.046875c0-0.3359375-0.1279297-0.5839844-0.2724609-0.7363281
			c-0.1679688-0.1757813-0.4316406-0.3037109-0.7587891-0.3037109
			C134.8538361,52.1132813,134.4944611,52.1699219,134.1741486,52.4814453z"/>
		<path display="inline" fill="#B3B3B3" d="M138.3264923,52.2099609L137.9827423,55h-0.5761719l0.34375-2.7900391h-0.3193359
			l0.0634766-0.5283203h0.3203125l0.1757813-1.4472656c0.0322266-0.2792969,0.0800781-0.6230469,0.3359375-0.8789063
			c0.2158203-0.2158203,0.4794922-0.2724609,0.7275391-0.2724609c0.1601563,0,0.3193359,0.0244141,0.4638672,0.0722656
			l-0.0722656,0.5595703c-0.1123047-0.0400391-0.2480469-0.0722656-0.3515625-0.0722656
			c-0.1923828,0-0.3037109,0.0800781-0.3525391,0.1279297c-0.0878906,0.0878906-0.1513672,0.2402344-0.1835938,0.5283203
			l-0.1679688,1.3828125h0.8154297l-0.0634766,0.5283203H138.3264923z"/>
		<path display="inline" fill="#B3B3B3" d="M144.1253204,51.6816406h0.5751953l-0.3916016,3.2382813
			c-0.0634766,0.5195313-0.1279297,1.0390625-0.5195313,1.4394531c-0.2158203,0.2236328-0.6152344,0.4794922-1.2949219,0.4794922
			c-0.5761719,0-0.9199219-0.1914063-1.1201172-0.3916016c-0.359375-0.3681641-0.375-0.8798828-0.375-1.0791016v-0.0478516
			h0.5673828v0.03125c0,0.2324219,0.0244141,0.5195313,0.2636719,0.7441406
			c0.2080078,0.1914063,0.4716797,0.2314453,0.6875,0.2314453c0.4316406,0,0.6962891-0.1513672,0.8398438-0.2958984
			c0.2958984-0.2880859,0.3359375-0.7109375,0.3681641-1.015625l0.0478516-0.4794922
			c-0.0722656,0.1123047-0.2158203,0.2880859-0.4716797,0.4160156c-0.1845703,0.0878906-0.4082031,0.1435547-0.6396484,0.1435547
			c-0.4716797,0-0.8320313-0.1435547-1.0957031-0.4238281c-0.34375-0.3515625-0.4160156-0.7832031-0.4160156-1.1269531
			c0-0.5361328,0.1845703-1.0957031,0.5361328-1.4550781c0.2314453-0.2402344,0.6152344-0.4882813,1.2314453-0.4882813
			c0.1679688,0,0.4794922,0.0166016,0.7353516,0.1601563c0.1357422,0.0722656,0.2958984,0.2001953,0.4160156,0.3916016
			L144.1253204,51.6816406z M142.1819611,52.4169922c-0.2714844,0.2558594-0.4316406,0.6396484-0.4316406,1.0878906
			c0,0.3515625,0.1201172,0.6396484,0.2958984,0.8154297c0.1923828,0.1923828,0.4316406,0.2636719,0.6796875,0.2636719
			c0.4003906,0,0.6640625-0.1513672,0.8154297-0.2871094c0.2880859-0.2646484,0.4238281-0.7363281,0.4238281-1.1035156
			c0-0.2724609-0.0957031-0.5917969-0.2880859-0.7998047c-0.1435547-0.1523438-0.359375-0.2802734-0.6953125-0.2802734
			C142.6702423,52.1132813,142.4065704,52.2099609,142.1819611,52.4169922z"/>
		<path display="inline" fill="#B3B3B3" d="M145.7903595,51.6816406h0.5761719l-0.0478516,0.3603516
			c0.0634766-0.1044922,0.1679688-0.2246094,0.3359375-0.3203125c0.1591797-0.0878906,0.3037109-0.1201172,0.4794922-0.1201172
			c0.1992188,0,0.3515625,0.0478516,0.4873047,0.1367188l-0.3359375,0.5195313
			c-0.0634766-0.0478516-0.1679688-0.1123047-0.34375-0.1123047c-0.1591797,0-0.3115234,0.0478516-0.4394531,0.1757813
			c-0.2314453,0.2236328-0.2880859,0.5996094-0.328125,0.9277344L145.9583282,55h-0.5751953L145.7903595,51.6816406z"/>
		<path display="inline" fill="#B3B3B3" d="M148.7346954,51.6816406L148.3264923,55h-0.5751953l0.4072266-3.3183594H148.7346954z
			 M148.3030548,50.1708984c0.0634766-0.0800781,0.1835938-0.1523438,0.34375-0.1523438
			c0.1113281,0,0.1914063,0.0322266,0.2558594,0.0957031c0.0712891,0.0722656,0.1035156,0.1601563,0.1035156,0.2646484
			c0,0.1435547-0.0556641,0.2470703-0.1279297,0.3193359c-0.1035156,0.1123047-0.2314453,0.1357422-0.3193359,0.1357422
			c-0.1044922,0-0.1923828-0.03125-0.2724609-0.1113281c-0.0634766-0.0644531-0.0957031-0.1523438-0.0957031-0.2480469
			C148.1907501,50.3544922,148.2386017,50.2421875,148.3030548,50.1708984z"/>
		<path display="inline" fill="#B3B3B3" d="M152.6936798,49.1708984h0.5751953L152.5491486,55h-0.5751953l0.0556641-0.4638672
			c-0.1279297,0.1923828-0.2958984,0.328125-0.4638672,0.4160156c-0.1992188,0.1035156-0.4160156,0.1435547-0.6474609,0.1435547
			c-0.3681641,0-0.7119141-0.0878906-1.015625-0.3759766c-0.2480469-0.2392578-0.4873047-0.6474609-0.4873047-1.2226563
			c0-0.5361328,0.2158203-1.0957031,0.5751953-1.4394531c0.2802734-0.2714844,0.7041016-0.4560547,1.1835938-0.4560547
			c0.2080078,0,0.5117188,0.0566406,0.7197266,0.1601563c0.1513672,0.0800781,0.3115234,0.2158203,0.4316406,0.3916016
			L152.6936798,49.1708984z M150.4221954,52.4091797c-0.2236328,0.2080078-0.4150391,0.5683594-0.4150391,1.03125
			c0,0.4238281,0.1679688,0.6962891,0.3115234,0.8476563c0.2236328,0.2402344,0.4873047,0.2958984,0.7353516,0.2958984
			c0.2558594,0,0.5361328-0.0478516,0.7841797-0.2871094c0.2714844-0.2724609,0.3837891-0.7197266,0.3837891-1.0478516
			c0-0.3359375-0.1123047-0.6396484-0.3046875-0.8476563c-0.1992188-0.2158203-0.4550781-0.2880859-0.71875-0.2880859
			C150.9182892,52.1132813,150.6546173,52.1933594,150.4221954,52.4091797z"/>
		<path display="inline" fill="#B3B3B3" d="M155.8470001,56.8388672h-0.5761719l0.6396484-5.1572266h0.5761719l-0.0556641,0.4638672
			c0.1513672-0.2001953,0.3271484-0.3193359,0.4628906-0.3916016c0.2246094-0.1201172,0.4404297-0.1523438,0.6796875-0.1523438
			c0.2880859,0,0.7041016,0.0566406,1.0400391,0.3837891c0.2558594,0.2480469,0.4316406,0.6083984,0.4316406,1.1435547
			c0,0.6318359-0.2324219,1.1914063-0.5839844,1.5351563c-0.3681641,0.3603516-0.7753906,0.4316406-1.1914063,0.4316406
			c-0.2158203,0-0.5039063-0.0234375-0.7597656-0.1835938c-0.1513672-0.0957031-0.2871094-0.2402344-0.375-0.3759766
			L155.8470001,56.8388672z M158.0052032,54.3046875c0.3046875-0.2802734,0.4482422-0.7275391,0.4482422-1.1357422
			c0-0.3994141-0.1601563-0.6474609-0.2880859-0.7753906c-0.1435547-0.1523438-0.3759766-0.2802734-0.7353516-0.2802734
			c-0.3603516,0-0.6162109,0.1279297-0.8232422,0.3525391c-0.2402344,0.2558594-0.3681641,0.6230469-0.3681641,1.0068359
			c0,0.2558594,0.0556641,0.5439453,0.2714844,0.7919922c0.2080078,0.2314453,0.4638672,0.3193359,0.7441406,0.3193359
			C157.5257111,54.5839844,157.7815704,54.5126953,158.0052032,54.3046875z"/>
		<path display="inline" fill="#B3B3B3" d="M162.6927032,51.6816406h0.5761719L162.860672,55h-0.5751953l0.0556641-0.4638672
			c-0.1035156,0.1435547-0.2480469,0.2958984-0.4160156,0.3916016c-0.2392578,0.1367188-0.4873047,0.1679688-0.6875,0.1679688
			c-0.3994141,0-0.7675781-0.0800781-1.0791016-0.4072266c-0.2480469-0.2646484-0.4316406-0.6396484-0.4316406-1.1835938
			c0-0.6796875,0.2636719-1.1757813,0.5751953-1.4716797c0.3125-0.2949219,0.6962891-0.4316406,1.1914063-0.4316406
			c0.2236328,0,0.4638672,0.0322266,0.7041016,0.1601563c0.1992188,0.1035156,0.3359375,0.2324219,0.4394531,0.3916016
			L162.6927032,51.6816406z M160.7425079,52.4257813c-0.2480469,0.2314453-0.4238281,0.6308594-0.4238281,1.0390625
			c0,0.328125,0.1191406,0.6640625,0.34375,0.8710938c0.1992188,0.1923828,0.4394531,0.2480469,0.6708984,0.2480469
			c0.3603516,0,0.6318359-0.1201172,0.8242188-0.3271484c0.2392578-0.2480469,0.3759766-0.671875,0.3759766-1.0800781
			c0-0.4472656-0.2001953-0.6953125-0.3125-0.7998047c-0.1357422-0.1269531-0.3515625-0.2636719-0.6796875-0.2636719
			C161.1741486,52.1132813,160.9095001,52.265625,160.7425079,52.4257813z"/>
		<path display="inline" fill="#B3B3B3" d="M164.2942657,56.8388672h-0.5761719l0.6396484-5.1572266h0.5761719l-0.0556641,0.4638672
			c0.1513672-0.2001953,0.3271484-0.3193359,0.4628906-0.3916016c0.2246094-0.1201172,0.4404297-0.1523438,0.6796875-0.1523438
			c0.2880859,0,0.7041016,0.0566406,1.0400391,0.3837891c0.2558594,0.2480469,0.4316406,0.6083984,0.4316406,1.1435547
			c0,0.6318359-0.2324219,1.1914063-0.5839844,1.5351563c-0.3681641,0.3603516-0.7753906,0.4316406-1.1914063,0.4316406
			c-0.2158203,0-0.5039063-0.0234375-0.7597656-0.1835938c-0.1513672-0.0957031-0.2871094-0.2402344-0.375-0.3759766
			L164.2942657,56.8388672z M166.4524689,54.3046875c0.3046875-0.2802734,0.4482422-0.7275391,0.4482422-1.1357422
			c0-0.3994141-0.1601563-0.6474609-0.2880859-0.7753906c-0.1435547-0.1523438-0.3759766-0.2802734-0.7353516-0.2802734
			c-0.3603516,0-0.6162109,0.1279297-0.8232422,0.3525391c-0.2402344,0.2558594-0.3681641,0.6230469-0.3681641,1.0068359
			c0,0.2558594,0.0556641,0.5439453,0.2714844,0.7919922c0.2080078,0.2314453,0.4638672,0.3193359,0.7441406,0.3193359
			C165.9729767,54.5839844,166.2288361,54.5126953,166.4524689,54.3046875z"/>
		<path display="inline" fill="#B3B3B3" d="M171.2766876,54.1523438c-0.1523438,0.2558594-0.3925781,0.5361328-0.6162109,0.6875
			c-0.328125,0.2158203-0.6796875,0.2558594-0.9589844,0.2558594c-0.3925781,0-0.7675781-0.0712891-1.0957031-0.4160156
			c-0.2001953-0.2070313-0.4394531-0.5751953-0.4394531-1.1904297c0-0.5683594,0.2158203-1.0722656,0.5673828-1.4238281
			c0.34375-0.34375,0.7197266-0.4638672,1.1591797-0.4638672c0.5595703,0,0.8876953,0.2001953,1.0791016,0.3925781
			c0.2402344,0.2470703,0.4638672,0.703125,0.3759766,1.4628906h-2.5820313
			c-0.0087891,0.4716797,0.1513672,0.7353516,0.2958984,0.8789063c0.1914063,0.1923828,0.4150391,0.2480469,0.6552734,0.2480469
			c0.1914063,0,0.4238281-0.03125,0.6396484-0.1835938c0.1679688-0.1201172,0.3359375-0.3359375,0.4316406-0.5117188
			L171.2766876,54.1523438z M170.7962189,52.9775391c-0.0078125-0.2402344-0.1113281-0.4960938-0.2792969-0.65625
			c-0.1845703-0.1757813-0.4238281-0.2080078-0.6083984-0.2080078c-0.2958984,0-0.5273438,0.0800781-0.7275391,0.2802734
			c-0.1435547,0.1435547-0.2636719,0.3515625-0.3193359,0.5839844H170.7962189z"/>
		<path display="inline" fill="#B3B3B3" d="M172.4456329,51.6816406h0.5761719l-0.0478516,0.3603516
			c0.0634766-0.1044922,0.1679688-0.2246094,0.3359375-0.3203125c0.1591797-0.0878906,0.3037109-0.1201172,0.4794922-0.1201172
			c0.2001953,0,0.3515625,0.0478516,0.4873047,0.1367188l-0.3359375,0.5195313
			c-0.0634766-0.0478516-0.1679688-0.1123047-0.34375-0.1123047c-0.1591797,0-0.3115234,0.0478516-0.4394531,0.1757813
			c-0.2314453,0.2236328-0.2880859,0.5996094-0.328125,0.9277344L172.6136017,55h-0.5751953L172.4456329,51.6816406z"/>
		<path display="inline" fill="#B3B3B3" d="M174.7327423,49.1308594h0.7841797l-0.1279297,0.7763672l-0.6240234,1.3027344
			l-0.2958984-0.0800781l0.4160156-1.0390625h-0.3115234L174.7327423,49.1308594z"/>
	</g>
</g>
<g id="Layer_6">
	<g id="Logo">
		<g>
			<path fill="#FFFFFF" d="M88.6311874,29.9609375h5.640625v8.9770508h-1.7041016l-0.1923828-2.328125
				c-0.8632813,1.6079102-2.328125,2.328125-4.1035156,2.328125c-3.984375,0-6.0253906-2.9521484-6.0253906-8.6650391
				c0-6.5522461,2.6162109-9.5288086,6.6972656-9.5288086c3.5283203,0,5.328125,2.3764648,5.2558594,6.3608398l-2.1835938,0.1918945
				c0-3.5043945-1.3447266-4.65625-3.2402344-4.65625c-2.3759766,0-4.0810547,2.0161133-4.0810547,7.3925781
				c0,4.7285156,1.2490234,7.0327148,3.8886719,7.0327148c2.1367188,0,3.5761719-1.800293,3.6005859-4.6323242v-0.6000977
				h-3.5527344V29.9609375z"/>
			<path fill="#FFFFFF" d="M103.4876328,30.4169922c0.2158203-2.0639648-0.2158203-2.6401367-1.2724609-2.6401367
				c-1.8242188,0-2.4960938,1.9443359-2.4960938,4.2006836v6.6723633h-2.1357422V26.3129883h1.9677734l0.0957031,1.7998047
				h0.0478516c0.4560547-1.0556641,1.4404297-2.0878906,3.1445313-2.0878906c1.9443359,0,3.0722656,1.2958984,2.6640625,4.2724609
				L103.4876328,30.4169922z"/>
			<path fill="#FFFFFF" d="M107.4944687,21.0322266h2.1601563v2.5683594h-2.1601563V21.0322266z M107.4944687,26.3129883h2.1601563
				v12.3369141h-2.1601563V26.3129883z"/>
			<path fill="#FFFFFF" d="M122.2063828,21.0322266v17.6176758h-1.7275391l-0.2880859-1.6079102h-0.0244141
				c-0.6474609,1.2241211-1.9443359,1.8959961-3.4082031,1.8959961c-2.6640625,0-4.5361328-1.65625-4.5361328-6.1923828
				c0-4.4648438,1.7519531-6.7207031,4.7998047-6.7207031c1.5361328,0,2.4726563,0.671875,3.0722656,1.5839844v-6.5766602
				H122.2063828z M117.382164,27.6328125c-1.9677734,0-2.9521484,1.5844727-2.9521484,5.112793
				c0,3.4082031,1.0078125,4.6083984,2.7607422,4.6083984c1.8955078,0,3-1.512207,3-4.8964844
				C120.1907578,28.7612305,119.038414,27.6328125,117.382164,27.6328125z"/>
			<path fill="#CB9D4F" d="M125.2776718,43.0424805V26.3129883h1.7753906l0.2167969,1.5839844h0.0712891
				c0.6962814-1.1040039,1.8242111-1.8720703,3.6005783-1.8720703c2.3525391,0,4.3203125,1.7041016,4.3203125,6.0966797
				c0,5.1362305-2.1845703,6.8164063-4.7763672,6.8164063c-1.4404297,0-2.5439377-0.6479492-3.072258-1.512207h-0.0244141v5.6166992
				H125.2776718z M130.1497345,37.3295898c2.0400391,0,2.9042969-1.7998047,2.9042969-5.1601563
				c0-3.4082031-1.0800781-4.5366211-2.6884766-4.5366211c-1.9677734,0-3.0478439,1.4165039-3.0478439,4.7524414
				C127.3177109,36.1298828,128.4212189,37.3295898,130.1497345,37.3295898z"/>
			<path fill="#FFFFFF" d="M147.5501251,38.6259766c-0.4804688,0.1201172-0.8886719,0.1679688-1.2246094,0.1679688
				c-1.2958984,0-1.7519531-0.6962891-1.9199219-1.7041016c-0.6005859,1.1040039-1.8486328,1.8481445-3.5761719,1.8481445
				c-2.6162109,0-3.6728516-1.65625-3.6728516-3.3603516c0-3.1923828,2.9287109-3.6962891,7.0332031-3.984375v-0.815918
				c0-2.4482422-1.0322266-3.1206055-2.4248047-3.1206055c-1.8476563,0-2.2314453,0.8642578-2.2314453,1.9682617
				c0,0.3603516,0.0234375,0.7202148,0.0712891,1.0800781l-1.8955078,0.1679688
				c-0.0966797-0.4077148-0.1201172-0.815918-0.1201172-1.199707c0-2.1362305,1.3193359-3.6484375,4.34375-3.6484375
				c3.8408203,0,4.3447266,2.6879883,4.3447266,5.8325195v4.5361328c0,0.6484375,0.1679688,0.9360352,0.671875,0.9360352
				c0.1445313,0,0.3359375-0.0239258,0.5517578-0.0717773L147.5501251,38.6259766z M144.1897736,33.081543
				c-4.0322266,0.144043-4.8251953,0.9121094-4.8251953,2.328125c0,1.1279297,0.6728516,1.9682617,2.1123047,1.9682617
				c1.4648438,0,2.7128906-1.1523438,2.7128906-2.7841797V33.081543z"/>
			<path fill="#FFFFFF" d="M155.7815704,30.0571289c-0.1445313-1.5600586-0.7441406-2.4003906-2.3525391-2.4003906
				c-1.3916016,0-2.2324219,0.5522461-2.2324219,1.7285156c0,1.3681641,1.2490234,1.7041016,2.6650391,2.0639648
				c1.8242188,0.4560547,3.9355469,0.9599609,3.9355469,3.7202148c0,2.4003906-1.9921875,3.7685547-4.65625,3.7685547
				c-2.7363281,0-4.1757813-1.1762695-4.4404297-3.840332l1.9443359-0.2880859
				c0.1923828,1.6079102,0.7207031,2.4960938,2.5683594,2.4960938c1.7285156,0,2.4960938-0.7919922,2.4960938-1.9199219
				c0-1.4160156-1.2001953-1.800293-2.5683594-2.1601563c-1.8476563-0.4799805-3.984375-0.8642578-3.984375-3.5766602
				c0-2.3999023,1.8964844-3.6240234,4.3203125-3.6240234c2.640625,0,3.984375,1.3198242,4.1767578,3.7441406
				L155.7815704,30.0571289z"/>
			<path fill="#FFFFFF" d="M158.9729767,26.3129883h1.4638672v-2.5683594l2.1357422-0.7202148v3.2885742h2.8085938V27.96875
				h-2.8085938v6.8168945c0,1.7041016,0.3603516,2.472168,1.6806641,2.472168c0.5517578,0,1.0322266-0.0961914,1.4882813-0.2402344
				l0.1914063,1.5844727c-0.4082031,0.1679688-1.2236328,0.3359375-2.1123047,0.3359375
				c-2.5683594,0-3.3837891-1.4404297-3.3837891-3.9125977V27.96875h-1.4638672V26.3129883z"/>
			<path fill="#FFFFFF" d="M176.4925079,34.6894531c-0.359375,3.456543-2.6396484,4.2485352-4.5361328,4.2485352
				c-3.8886719,0-5.1367188-2.7124023-5.1367188-6.3364258c0-4.0083008,1.8242188-6.5766602,5.3525391-6.5766602
				c2.9287109,0,4.4169922,1.9921875,4.4169922,5.472168c0,0.4560547-0.0244141,0.9121094-0.0722656,1.4165039h-7.4648438
				c0,2.4482422,0.6484375,4.3442383,2.9521484,4.3442383c1.5126953,0,2.4482422-0.7919922,2.6884766-2.7363281
				L176.4925079,34.6894531z M174.5247345,31.4013672c0.0722656-2.2324219-0.6005859-3.7685547-2.5683594-3.7685547
				c-2.0644531,0-2.8564453,1.800293-2.9042969,3.7685547H174.5247345z"/>
		</g>
		<g>
			
				<image overflow="visible" opacity="0.18" width="79" height="57" xlink:href="9E2C8CC5.png"  transform="matrix(1 0 0 1 2.3333333 19)">
			</image>
			<g>
				<g>
					<g>
						<g>
							<polygon fill="#24B52E" points="5.8402381,52.7147942 17.3682804,72.6819458 28.8962765,52.7147942 17.3682804,32.7476425 
															"/>
						</g>
						<g>
							<polygon fill="#24B52E" points="17.8626385,33 29.4431229,53.1034355 41.4279366,33 							"/>
						</g>
						<g>
							<polygon fill="#24B52E" points="41.7121925,33 41.7121925,33 29.8263607,53 51.4858551,53 52.9101944,53 53.0222664,53 
								64.4625931,33 43.0529366,33 							"/>
						</g>
						<g>
							<g>
								<g opacity="0.05">
									<polygon points="53.6883736,22.0418377 42.4226265,42 64.9541245,42 									"/>
								</g>
								<polygon fill="#009245" points="53.6883736,22.0418377 42.4226265,42 64.9541245,42 								"/>
							</g>
						</g>
						<g>
							<g>
								<g opacity="0.05">
									<polygon points="54.3772125,22 65.9052582,41.9671478 77.4332504,22 									"/>
								</g>
								<polygon fill="#009245" points="54.3772125,22 65.9052582,41.9671478 77.4332504,22 								"/>
							</g>
						</g>
					</g>
				</g>
				<defs>
					
						<filter id="Adobe_OpacityMaskFilter" filterUnits="userSpaceOnUse" x="5.8402381" y="22" width="71.5930099" height="50.6819458">
						
							<feColorMatrix  type="matrix" values="-1 0 0 0 1  0 -1 0 0 1  0 0 -1 0 1  0 0 0 1 0" color-interpolation-filters="sRGB" result="source"/>
					</filter>
				</defs>
				<mask maskUnits="userSpaceOnUse" x="5.8402381" y="22" width="71.5930099" height="50.6819458" id="SVGID_2_">
					<g filter="url(#Adobe_OpacityMaskFilter)">
						<image overflow="visible" width="77" height="55" xlink:href="9E2C8CC7.jpg"  transform="matrix(1 0 0 1 3.3333333 20)">
						</image>
					</g>
				</mask>
				<g opacity="0.16" mask="url(#SVGID_2_)">
					<g>
						<g>
							<polygon fill="#1D3A10" points="5.8402381,52.7147942 17.3682804,72.6819458 28.8962765,52.7147942 17.3682804,32.7476425 
															"/>
						</g>
						<g>
							<polygon fill="#1D3A10" points="17.8626385,33 29.4431229,53.1034355 41.4279366,33 							"/>
						</g>
						<g>
							<polygon fill="#1D3A10" points="41.7121925,33 41.7121925,33 29.8263607,53 51.4858551,53 52.9101944,53 53.0222664,53 
								64.4625931,33 43.0529366,33 							"/>
						</g>
						<g>
							<g>
								<g opacity="0.05">
									<polygon fill="#1D3A10" points="53.6883736,22.0418377 42.4226265,42 64.9541245,42 									"/>
								</g>
								<polygon fill="#1D3A10" points="53.6883736,22.0418377 42.4226265,42 64.9541245,42 								"/>
							</g>
						</g>
						<g>
							<g>
								<g opacity="0.05">
									<polygon fill="#1D3A10" points="54.3772125,22 65.9052582,41.9671478 77.4332504,22 									"/>
								</g>
								<polygon fill="#1D3A10" points="54.3772125,22 65.9052582,41.9671478 77.4332504,22 								"/>
							</g>
						</g>
					</g>
				</g>
			</g>
		</g>
	</g>
</g>
</svg>
